<svg xmlns="http://www.w3.org/2000/svg" width="320" height="32" viewBox="0 0 320 32" shape-rendering="crispEdges">
  <defs>
    <clipPath id="w"><polygon points="32,0 64,16 32,32 0,16"/></clipPath>
    <clipPath id="l"><polygon points="96,0 128,16 96,32 64,16"/></clipPath>
    <clipPath id="r"><polygon points="160,0 192,16 160,32 128,16"/></clipPath>
    <clipPath id="b"><polygon points="224,0 256,16 224,32 192,16"/></clipPath>
    <clipPath id="g"><polygon points="288,0 320,16 288,32 256,16"/></clipPath>
  </defs>
  <!-- water -->
  <polygon points="32,0 64,16 32,32 0,16" fill="#315f73"/>
  <g clip-path="url(#w)" fill="none" stroke="#4e8294" stroke-width="1">
    <path d="M-4 9 Q10 5 24 9 T52 9 T80 9"/><path d="M-5 17 Q9 13 23 17 T51 17 T79 17"/><path d="M-4 25 Q10 21 24 25 T52 25 T80 25"/>
  </g>
  <polygon points="32,0 64,16 32,32 0,16" fill="none" stroke="#244957"/>
  <!-- ordinary grass -->
  <polygon points="96,0 128,16 96,32 64,16" fill="#587a50"/>
  <g clip-path="url(#l)" stroke="#6f925f" stroke-width="1"><path d="M75 18l2-4m8 9l2-5m15 2l2-4m9 7l2-4m-14-10l2-3m-20 5l2-3"/></g>
  <polygon points="96,0 128,16 96,32 64,16" fill="none" stroke="#405e3c"/>
  <!-- stone road -->
  <polygon points="160,0 192,16 160,32 128,16" fill="#aaa49b"/>
  <g clip-path="url(#r)" fill="none" stroke="#817d77" stroke-width="1">
    <path d="M128 16h64M144 8h32M144 24h32M144 8l-8 4m40-4l8 4m-40 12l-8-4m40 4l8-4M160 0v32M152 4v8m16-8v8m-16 8v8m16-8v8"/>
  </g>
  <polygon points="160,0 192,16 160,32 128,16" fill="none" stroke="#6d6964"/>
  <!-- building foundation -->
  <polygon points="224,0 256,16 224,32 192,16" fill="#80675a"/>
  <g clip-path="url(#b)" fill="none" stroke="#5e493f" stroke-width="1">
    <path d="M192 16h64M208 8h32M208 24h32M208 8v16M224 0v32M240 8v16"/>
  </g>
  <polygon points="224,0 256,16 224,32 192,16" fill="none" stroke="#523d34"/>
  <!-- garden grass -->
  <polygon points="288,0 320,16 288,32 256,16" fill="#477746"/>
  <g clip-path="url(#g)">
    <circle cx="276" cy="16" r="2" fill="#d4b84a"/><circle cx="293" cy="11" r="2" fill="#d887a2"/><circle cx="302" cy="20" r="2" fill="#e2d06b"/><circle cx="284" cy="24" r="1.5" fill="#9d7ac4"/>
    <path d="M266 20l3-6m15 3l2-6m10 14l2-6m9-4l2-5" stroke="#79a45f" stroke-width="1"/>
  </g>
  <polygon points="288,0 320,16 288,32 256,16" fill="none" stroke="#315b35"/>
</svg>
